<mxfile host="af7d5b62-a80f-4ff7-b760-ed6b1c4a711d" modified="2020-09-09T09:10:57.616Z" agent="5.0 (Macintosh; Intel Mac OS X 10_15_6) AppleWebKit/537.36 (KHTML, like Gecko) Code/1.48.1 Chrome/78.0.3904.130 Electron/7.3.2 Safari/537.36" etag="Ezk3iQxOQXgglZ2UqdpS" version="13.1.3">
    <diagram id="6hGFLwfOUW9BJ-s0fimq" name="Page-1">
        <mxGraphModel dx="840" dy="635" grid="1" gridSize="10" guides="1" tooltips="1" connect="1" arrows="1" fold="1" page="1" pageScale="1" pageWidth="827" pageHeight="1169" math="0" shadow="0">
            <root>
                <mxCell id="0"/>
                <mxCell id="1" parent="0"/>
                <mxCell id="2" value="" style="outlineConnect=0;dashed=0;verticalLabelPosition=bottom;verticalAlign=top;align=center;html=1;shape=mxgraph.aws3.api_gateway;fillColor=#D9A741;gradientColor=none;" vertex="1" parent="1">
                    <mxGeometry x="206.75" y="207" width="76.5" height="93" as="geometry"/>
                </mxCell>
                <mxCell id="4" value="" style="outlineConnect=0;dashed=0;verticalLabelPosition=bottom;verticalAlign=top;align=center;html=1;shape=mxgraph.aws3.lambda_function;fillColor=#F58534;gradientColor=none;" vertex="1" parent="1">
                    <mxGeometry x="530" y="217.5" width="74.5" height="72" as="geometry"/>
                </mxCell>
                <mxCell id="5" value="&lt;span style=&quot;color: rgba(0 , 0 , 0 , 0) ; font-family: monospace ; font-size: 0px&quot;&gt;%3CmxGraphModel%3E%3Croot%3E%3CmxCell%20id%3D%220%22%2F%3E%3CmxCell%20id%3D%221%22%20parent%3D%220%22%2F%3E%3CmxCell%20id%3D%222%22%20value%3D%22%22%20style%3D%22outlineConnect%3D0%3Bdashed%3D0%3BverticalLabelPosition%3Dbottom%3BverticalAlign%3Dtop%3Balign%3Dcenter%3Bhtml%3D1%3Bshape%3Dmxgraph.aws3.lambda_function%3BfillColor%3D%23F58534%3BgradientColor%3Dnone%3B%22%20vertex%3D%221%22%20parent%3D%221%22%3E%3CmxGeometry%20x%3D%22360%22%20y%3D%22290%22%20width%3D%2274.5%22%20height%3D%2272%22%20as%3D%22geometry%22%2F%3E%3C%2FmxCell%3E%3C%2Froot%3E%3C%2FmxGraphModel%3E&lt;/span&gt;" style="text;html=1;align=center;verticalAlign=middle;resizable=0;points=[];autosize=1;" vertex="1" parent="1">
                    <mxGeometry x="235" y="468" width="20" height="20" as="geometry"/>
                </mxCell>
                <mxCell id="6" value="" style="outlineConnect=0;dashed=0;verticalLabelPosition=bottom;verticalAlign=top;align=center;html=1;shape=mxgraph.aws3.lambda_function;fillColor=#F58534;gradientColor=none;" vertex="1" parent="1">
                    <mxGeometry x="206.75" y="407" width="74.5" height="72" as="geometry"/>
                </mxCell>
                <mxCell id="7" value="&lt;span style=&quot;color: rgba(0 , 0 , 0 , 0) ; font-family: monospace ; font-size: 0px&quot;&gt;%3CmxGraphModel%3E%3Croot%3E%3CmxCell%20id%3D%220%22%2F%3E%3CmxCell%20id%3D%221%22%20parent%3D%220%22%2F%3E%3CmxCell%20id%3D%222%22%20value%3D%22%22%20style%3D%22pointerEvents%3D1%3Bshadow%3D0%3Bdashed%3D0%3Bhtml%3D1%3BstrokeColor%3Dnone%3BfillColor%3D%234495D1%3BlabelPosition%3Dcenter%3BverticalLabelPosition%3Dbottom%3BverticalAlign%3Dtop%3Balign%3Dcenter%3BoutlineConnect%3D0%3Bshape%3Dmxgraph.veeam.2d.proxy%3B%22%20vertex%3D%221%22%20parent%3D%221%22%3E%3CmxGeometry%20x%3D%22360%22%20y%3D%22481%22%20width%3D%2280%22%20height%3D%2280%22%20as%3D%22geometry%22%2F%3E%3C%2FmxCell%3E%3C%2Froot%3E%3C%2FmxGraphModel%3E&lt;/span&gt;" style="text;html=1;align=center;verticalAlign=middle;resizable=0;points=[];autosize=1;" vertex="1" parent="1">
                    <mxGeometry x="573" y="399" width="20" height="20" as="geometry"/>
                </mxCell>
                <mxCell id="8" value="" style="pointerEvents=1;shadow=0;dashed=0;html=1;strokeColor=none;fillColor=#4495D1;labelPosition=center;verticalLabelPosition=bottom;verticalAlign=top;align=center;outlineConnect=0;shape=mxgraph.veeam.2d.proxy;" vertex="1" parent="1">
                    <mxGeometry x="530" y="403" width="80" height="80" as="geometry"/>
                </mxCell>
                <mxCell id="9" value="" style="shape=flexArrow;endArrow=classic;html=1;" edge="1" parent="1">
                    <mxGeometry width="50" height="50" relative="1" as="geometry">
                        <mxPoint x="300" y="260" as="sourcePoint"/>
                        <mxPoint x="520" y="260" as="targetPoint"/>
                    </mxGeometry>
                </mxCell>
                <mxCell id="10" value="" style="shape=flexArrow;endArrow=classic;html=1;" edge="1" parent="1">
                    <mxGeometry width="50" height="50" relative="1" as="geometry">
                        <mxPoint x="300" y="440" as="sourcePoint"/>
                        <mxPoint x="520" y="440" as="targetPoint"/>
                    </mxGeometry>
                </mxCell>
                <mxCell id="11" value="" style="shape=mxgraph.bpmn.shape;html=1;verticalLabelPosition=bottom;labelBackgroundColor=#ffffff;verticalAlign=top;align=center;perimeter=ellipsePerimeter;outlineConnect=0;outline=eventInt;symbol=error;" vertex="1" parent="1">
                    <mxGeometry x="380" y="239.5" width="50" height="50" as="geometry"/>
                </mxCell>
                <mxCell id="16" value="" style="shape=mxgraph.bpmn.shape;html=1;verticalLabelPosition=bottom;labelBackgroundColor=#ffffff;verticalAlign=top;align=center;perimeter=ellipsePerimeter;outlineConnect=0;outline=eventInt;symbol=error;" vertex="1" parent="1">
                    <mxGeometry x="380" y="418" width="50" height="50" as="geometry"/>
                </mxCell>
                <mxCell id="18" value="" style="outlineConnect=0;dashed=0;verticalLabelPosition=bottom;verticalAlign=top;align=center;html=1;shape=mxgraph.aws3.cloudwatch;fillColor=#759C3E;gradientColor=none;" vertex="1" parent="1">
                    <mxGeometry x="363.75" y="100" width="82.5" height="93" as="geometry"/>
                </mxCell>
                <mxCell id="19" value="" style="outlineConnect=0;dashed=0;verticalLabelPosition=bottom;verticalAlign=top;align=center;html=1;shape=mxgraph.aws3.cloudwatch;fillColor=#759C3E;gradientColor=none;" vertex="1" parent="1">
                    <mxGeometry x="363.75" y="510" width="82.5" height="93" as="geometry"/>
                </mxCell>
                <mxCell id="20" value="" style="endArrow=classic;html=1;exitX=0.5;exitY=0.05;exitDx=0;exitDy=0;exitPerimeter=0;entryX=0.5;entryY=1;entryDx=0;entryDy=0;" edge="1" parent="1" source="19" target="16">
                    <mxGeometry width="50" height="50" relative="1" as="geometry">
                        <mxPoint x="390" y="410" as="sourcePoint"/>
                        <mxPoint x="440" y="360" as="targetPoint"/>
                    </mxGeometry>
                </mxCell>
                <mxCell id="21" value="" style="endArrow=classic;html=1;exitX=0.5;exitY=1;exitDx=0;exitDy=0;exitPerimeter=0;entryX=0.5;entryY=0;entryDx=0;entryDy=0;" edge="1" parent="1" source="18" target="11">
                    <mxGeometry width="50" height="50" relative="1" as="geometry">
                        <mxPoint x="390" y="410" as="sourcePoint"/>
                        <mxPoint x="440" y="360" as="targetPoint"/>
                    </mxGeometry>
                </mxCell>
                <mxCell id="22" value="原因調査" style="text;html=1;strokeColor=none;fillColor=none;align=center;verticalAlign=middle;whiteSpace=wrap;rounded=0;" vertex="1" parent="1">
                    <mxGeometry x="420" y="197.5" width="50" height="20" as="geometry"/>
                </mxCell>
                <mxCell id="23" value="原因調査" style="text;html=1;strokeColor=none;fillColor=none;align=center;verticalAlign=middle;whiteSpace=wrap;rounded=0;" vertex="1" parent="1">
                    <mxGeometry x="420" y="488" width="50" height="20" as="geometry"/>
                </mxCell>
            </root>
        </mxGraphModel>
    </diagram>
</mxfile>
